Faster (2010)(1080p) 

[img]http://img690.imageshack.us/img690/2414/postertqd.jpg[/img]      

Vanaf 31 maart in de bioscoop



Verenigde Staten
Actie / Drama
95 minuten

geregisseerd door George Tillman Jr.
met Dwayne Johnson, Carla Gugino en Billy Bob Thornton

'Faster' vertelt het verhaal van Driver (Dwayne Johnson), een man die net vrijkomt 
na een jarenlange gevangenisstraf. Hij zat vast omdat hij er tijdens een bankoverval 
in is geluisd. Daarnaast is zijn broer toen vermoord. Nu wil Driver maar één ding; 
zijn broer wreken.
 
http://www.moviemeter.nl/film/64601

English

An ex-con sets out to avenge his brother's death after they were double-crossed during a heist years ago. During his campaign, however, he's tracked by a veteran cop and an egocentric hit man. 


 
http://www.imdb.com/title/tt1433108/



...Source:s7-faster.1080
...Beeld: 1080P (1920*800]
...Ondertitels: Nederlands, english
...Audio: English (AC3 & DTS 5.1) 
...Container: x264 (MKV)

.
Subtitles.NL.......: Vertaald door: Badgast, Twiga en Blauwe mooi werk Team!!!
Controle...........: Depositair, Suurtje Tokke
Bewerking+Resync...: Depositair, Suurtje Tokke Klasse werk team!!! 
Thanks ............: SimplyReleases
******************************************************************
Spotinformatie 
Categorie : Beeld 
Formaat : x264HD 
Bron : Retail
 
Ondertitels : Nederlands English (instelbaar)
 
Genre : Actie
Drama

Format                           : Matroska
File size                        : 8.25 GiB
Duration                         : 1h 37mn
Overall bit rate                 : 12.1 Mbps
Movie name                       : Simply Relases,  Simply the Best.....
Encoded date                     : UTC 2011-02-10 18:25:42
Writing application              : mkvmerge v2.3.0 ('Freak U') built on Sep  8 2008 18:32:16
Writing library                  : libebml v0.7.7 + libmatroska v0.8.1

Video
ID                               : 1
Format                           : AVC
Format/Info                      : Advanced Video Codec
Format profile                   : High@L4.1
Format settings, CABAC           : Yes
Format settings, ReFrames        : 5 frames
Format settings, GOP             : M=1, N=16
Muxing mode                      : Container profile=Unknown@4.1
Codec ID                         : V_MPEG4/ISO/AVC
Duration                         : 1h 37mn
Bit rate                         : 10.1 Mbps
Width                            : 1 920 pixels
Height                           : 800 pixels
Display aspect ratio             : 2.40:1
Frame rate                       : 23.976 fps
Color space                      : YUV
Chroma subsampling               : 4:2:0
Bit depth                        : 8 bits
Scan type                        : Progressive
Bits/(Pixel*Frame)               : 0.274
Stream size                      : 6.74 GiB (82%)
Writing library                  : x264 core 112 r1867 22bfd31
Encoding settings                : cabac=1 / ref=5 / deblock=1:0:0 / analyse=0x3:0x133 / me=umh / subme=8 / psy=1 / psy_rd=1.00:0.00 / mixed_ref=1 / me_range=16 / chroma_me=1 / trellis=1 / 8x8dct=1 / cqm=0 / deadzone=21,11 / fast_pskip=1 / chroma_qp_offset=-2 / threads=24 / sliced_threads=0 / nr=0 / decimate=1 / interlaced=0 / constrained_intra=0 / bframes=3 / b_pyramid=2 / b_adapt=1 / b_bias=0 / direct=1 / weightb=1 / open_gop=0 / weightp=1 / keyint=250 / keyint_min=23 / scenecut=40 / intra_refresh=0 / rc=2pass / mbtree=0 / bitrate=10093 / ratetol=1.0 / qcomp=0.60 / qpmin=0 / qpmax=51 / qpstep=4 / cplxblur=20.0 / qblur=0.5 / ip_ratio=1.40 / pb_ratio=1.30 / aq=1:1.00
Language                         : English

Audio #1
ID                               : 2
Format                           : AC-3
Format/Info                      : Audio Coding 3
Mode extension                   : CM (complete main)
Codec ID                         : A_AC3
Duration                         : 1h 37mn
Bit rate mode                    : Constant
Bit rate                         : 448 Kbps
Channel(s)                       : 6 channels
Channel positions                : Front: L C R, Side: L R, LFE
Sampling rate                    : 48.0 KHz
Bit depth                        : 16 bits
Stream size                      : 314 MiB (4%)
Title                            : English AC3
Language                         : English

Audio #2
ID                               : 3
Format                           : DTS
Format/Info                      : Digital Theater Systems
Codec ID                         : A_DTS
Duration                         : 1h 37mn
Bit rate mode                    : Constant
Bit rate                         : 1 510 Kbps
Channel(s)                       : 6 channels
Channel positions                : Front: L C R, Side: L R, LFE
Sampling rate                    : 48.0 KHz
Bit depth                        : 24 bits
Stream size                      : 1.03 GiB (13%)
Title                            : English DTS
Language                         : English

Text #1
ID                               : 4
Format                           : UTF-8
Codec ID                         : S_TEXT/UTF8
Codec ID/Info                    : UTF-8 Plain Text
Title                            : Nederlands
Language                         : Dutch

Text #2
ID                               : 5
Format                           : UTF-8
Codec ID                         : S_TEXT/UTF8
Codec ID/Info                    : UTF-8 Plain Text
Title                            : English
Language                         : English


 
Weblink :  http://www.moviemeter.nl/film/64601
Weblink :  http://www.imdb.com/title/tt1433108

TBS